<svg xmlns="http://www.w3.org/2000/svg" xmlns:xlink="http://www.w3.org/1999/xlink" viewBox="0 0 241.83 221.59"><defs><style>.cls-1{isolation:isolate;}.cls-2{fill:url(#linear-gradient);}.cls-3,.cls-4{opacity:0.5;mix-blend-mode:multiply;}.cls-3{fill:url(#linear-gradient-2);}.cls-4{fill:url(#linear-gradient-3);}</style><linearGradient id="linear-gradient" x1="23.88" y1="-13.88" x2="245.53" y2="270.91" gradientUnits="userSpaceOnUse"><stop offset="0.01" stop-color="#bde8f9"/><stop offset="1" stop-color="#76b0ca"/></linearGradient><linearGradient id="linear-gradient-2" x1="-14.76" y1="44.83" x2="256.37" y2="44.83" xlink:href="#linear-gradient"/><linearGradient id="linear-gradient-3" x1="-29.4" y1="191.41" x2="278.35" y2="191.41" xlink:href="#linear-gradient"/></defs><title>BG-header</title><g class="cls-1"><g id="Capa_2" data-name="Capa 2"><g id="OBJECTS"><rect class="cls-2" width="241.83" height="221.59"/><path class="cls-3" d="M59.67,16.26c12.29.19,61.16,2,61.62,19.43.46,17.07-33,12.93-41.53,22.73-7.92,9.14.55,16.84,9.74,20.73,28.22,11.93,59.24,12.85,89.22,7,20.5-4,42.48-8.7,63.11-4.45V0H0V21.81C19.73,18.57,39.64,16,59.67,16.26Z"/><path class="cls-4" d="M241.83,172a98.37,98.37,0,0,0-23.73,1.52c-34.8,6.41-67.68,27.57-104.3,20.27-6.24-1.25-13.41-4.35-14.09-10.33-.42-3.71,1.94-7.42,1.07-11.06-3.94-16.52-48.31-10.26-59.85-8.59A279.1,279.1,0,0,0,0,173.32v48.27H241.83Z"/></g></g></g></svg>