<svg xmlns="http://www.w3.org/2000/svg" viewBox="0 0 147.02 41.01"><defs><style>.cls-1{isolation:isolate;}.cls-2{mix-blend-mode:soft-light;}.cls-3{fill:#fff;}</style></defs><title>equalizer</title><g class="cls-1"><g id="Capa_2" data-name="Capa 2"><g id="OBJECTS"><g class="cls-2"><path class="cls-3" d="M.67,41C.3,41,0,40.79,0,40.51V30c0-.27.3-.49.67-.49s.66.22.66.49V40.51C1.33,40.79,1,41,.67,41Z"/><path class="cls-3" d="M7.29,41c-.37,0-.67-.22-.67-.5V20.19c0-.27.3-.49.67-.49s.67.22.67.49V40.51C8,40.79,7.66,41,7.29,41Z"/><path class="cls-3" d="M13.91,41c-.37,0-.67-.22-.67-.5V20.19c0-.27.3-.49.67-.49s.67.22.67.49V40.51C14.58,40.79,14.28,41,13.91,41Z"/><path class="cls-3" d="M20.53,41c-.37,0-.66-.22-.66-.5V30c0-.27.29-.49.66-.49s.67.22.67.49V40.51C21.2,40.79,20.9,41,20.53,41Z"/><path class="cls-3" d="M27.16,41c-.37,0-.67-.22-.67-.5V34c0-.27.3-.49.67-.49s.66.22.66.49v6.54C27.82,40.79,27.52,41,27.16,41Z"/><path class="cls-3" d="M33.78,41c-.37,0-.67-.22-.67-.5V23.14c0-.27.3-.49.67-.49s.67.22.67.49V40.51C34.45,40.79,34.15,41,33.78,41Z"/><path class="cls-3" d="M40.4,41c-.37,0-.67-.22-.67-.5V19.2c0-.27.3-.49.67-.49s.67.22.67.49V40.51C41.07,40.79,40.77,41,40.4,41Z"/><path class="cls-3" d="M47,41c-.37,0-.66-.22-.66-.5V12.31c0-.27.29-.49.66-.49s.67.22.67.49v28.2C47.69,40.79,47.39,41,47,41Z"/><path class="cls-3" d="M53.64,41c-.36,0-.66-.22-.66-.5V3.45c0-.28.3-.5.66-.5s.67.22.67.5V40.51C54.31,40.79,54,41,53.64,41Z"/><path class="cls-3" d="M60.27,41c-.37,0-.67-.22-.67-.5V7.39c0-.28.3-.5.67-.5s.66.22.66.5V40.51C60.93,40.79,60.63,41,60.27,41Z"/><path class="cls-3" d="M66.89,41c-.37,0-.67-.22-.67-.5V20.19c0-.27.3-.49.67-.49s.67.22.67.49V40.51C67.56,40.79,67.26,41,66.89,41Z"/><path class="cls-3" d="M73.51,41c-.37,0-.67-.22-.67-.5V30c0-.27.3-.49.67-.49s.67.22.67.49V40.51C74.18,40.79,73.88,41,73.51,41Z"/><path class="cls-3" d="M80.13,41c-.37,0-.67-.22-.67-.5V33c0-.27.3-.49.67-.49s.67.22.67.49v7.52C80.8,40.79,80.5,41,80.13,41Z"/><path class="cls-3" d="M86.75,41c-.36,0-.66-.22-.66-.5V23.14c0-.27.3-.49.66-.49s.67.22.67.49V40.51C87.42,40.79,87.12,41,86.75,41Z"/><path class="cls-3" d="M93.38,41c-.37,0-.67-.22-.67-.5V20.19c0-.27.3-.49.67-.49s.66.22.66.49V40.51C94,40.79,93.75,41,93.38,41Z"/><path class="cls-3" d="M100,41c-.37,0-.67-.22-.67-.5V25.11c0-.27.3-.49.67-.49s.67.22.67.49v15.4C100.67,40.79,100.37,41,100,41Z"/><path class="cls-3" d="M106.62,41c-.37,0-.67-.22-.67-.5V8.37c0-.27.3-.49.67-.49s.67.22.67.49V40.51C107.29,40.79,107,41,106.62,41Z"/><path class="cls-3" d="M113.24,41c-.37,0-.66-.22-.66-.5V20.19c0-.27.29-.49.66-.49s.67.22.67.49V40.51C113.91,40.79,113.61,41,113.24,41Z"/><path class="cls-3" d="M119.87,41c-.37,0-.67-.22-.67-.5V.49c0-.27.3-.49.67-.49s.66.22.66.49v40C120.53,40.79,120.23,41,119.87,41Z"/><path class="cls-3" d="M126.49,41c-.37,0-.67-.22-.67-.5V30c0-.27.3-.49.67-.49s.66.22.66.49V40.51C127.15,40.79,126.86,41,126.49,41Z"/><path class="cls-3" d="M133.11,41c-.37,0-.67-.22-.67-.5V25.11c0-.27.3-.49.67-.49s.67.22.67.49v15.4C133.78,40.79,133.48,41,133.11,41Z"/><path class="cls-3" d="M139.73,41c-.37,0-.67-.22-.67-.5V20.19c0-.27.3-.49.67-.49s.67.22.67.49V40.51C140.4,40.79,140.1,41,139.73,41Z"/><path class="cls-3" d="M146.35,41c-.37,0-.66-.22-.66-.5V14.28c0-.27.29-.49.66-.49s.67.22.67.49V40.51C147,40.79,146.72,41,146.35,41Z"/></g></g></g></g></svg>