<svg xmlns="http://www.w3.org/2000/svg" viewBox="0 0 20.02 20.02"><defs><style>.cls-1{fill:#9f295b;}.cls-2{fill:#fff;}</style></defs><title>Recurso 4</title><g id="Capa_2" data-name="Capa 2"><g id="OBJECTS"><circle class="cls-1" cx="10.01" cy="10.01" r="10.01"/><path class="cls-2" d="M6.12,14.82A.82.82,0,0,1,5.3,14V10a.82.82,0,0,1,.82-.81.81.81,0,0,1,.81.81v4A.81.81,0,0,1,6.12,14.82Z"/><path class="cls-2" d="M10,14.82A.81.81,0,0,1,9.2,14V5.11a.81.81,0,1,1,1.62,0V14A.81.81,0,0,1,10,14.82Z"/><path class="cls-2" d="M13.9,14.82a.81.81,0,0,1-.81-.81V6.74a.82.82,0,0,1,.81-.82.82.82,0,0,1,.82.82V14A.82.82,0,0,1,13.9,14.82Z"/></g></g></svg>