<svg xmlns="http://www.w3.org/2000/svg" viewBox="0 0 20.02 20.02"><defs><style>.cls-1{fill:#f5d23f;}.cls-2{fill:#fff;}</style></defs><title>thumb-track</title><g id="Capa_2" data-name="Capa 2"><g id="OBJECTS"><circle class="cls-1" cx="10.01" cy="10.01" r="10.01"/><path class="cls-2" d="M13.42,5.12h-.05l-6,1H7.32a.29.29,0,0,0-.23.27v4.91a2.17,2.17,0,0,0-1.8.16c-.94.47-1.45,1.37-1.13,2s1.34.76,2.28.28a2,2,0,0,0,1.22-1.69h0V8.76l5.47-1v3.59a2.17,2.17,0,0,0-1.8.16c-.94.47-1.45,1.37-1.13,2s1.34.76,2.28.28a2,2,0,0,0,1.22-1.69V5.4A.28.28,0,0,0,13.42,5.12Z"/></g></g></svg>